<?xml version="1.0" encoding="utf-8"?>
<!-- Generator: Adobe Illustrator 24.1.2, SVG Export Plug-In . SVG Version: 6.00 Build 0)  -->
<svg version="1.1" id="Layer_1" xmlns="http://www.w3.org/2000/svg" xmlns:xlink="http://www.w3.org/1999/xlink" x="0px" y="0px"
	 width="136px" height="50px" viewBox="0 0 136 50" enable-background="new 0 0 136 50" xml:space="preserve">
<g>
	<path fill="#FFFFFF" stroke="#FFFFFF" stroke-width="0.3" stroke-miterlimit="10" d="M23.1,26.9c-0.2,0.1-0.5,0.2-0.7,0.3
		c-0.2,0.1-0.4,0.1-0.6,0.1c-0.3,0-0.5-0.1-0.6-0.2c-0.1-0.2-0.2-0.5-0.2-0.9c0-0.6,0-1.6,0.1-3.2s0.1-2.8,0.1-3.8
		c0-1.2,0-2.2-0.1-2.8c-0.1-0.6-0.2-1.1-0.4-1.5c0.2-0.1,0.5-0.2,0.7-0.3c0.2-0.1,0.4-0.1,0.6-0.1c0.3,0,0.5,0.1,0.6,0.2
		c0.1,0.1,0.2,0.4,0.2,0.9c0,0.4,0,1.3-0.1,2.9c-0.1,1.6-0.1,3-0.1,4.2c0,1.3,0,2.2,0.1,2.8C22.8,26.1,22.9,26.6,23.1,26.9z"/>
	<path fill="#FFFFFF" stroke="#FFFFFF" stroke-width="0.3" stroke-miterlimit="10" d="M34.1,26.9c-0.2,0.1-0.4,0.3-0.6,0.3
		s-0.3,0.1-0.5,0.1c-0.2,0-0.4-0.1-0.5-0.2c-0.1-0.2-0.2-0.4-0.2-0.7c-0.4,0.4-0.9,0.6-1.3,0.8c-0.4,0.2-0.9,0.3-1.3,0.3
		c-0.9,0-1.6-0.2-2.1-0.7s-0.8-1.1-0.8-1.9c0-0.9,0.4-1.6,1.1-2.2c0.7-0.5,1.7-0.8,3-0.8c0.2,0,0.4,0,0.6,0c0.2,0,0.5,0,0.7,0.1
		c0-0.1,0-0.1,0-0.2s0-0.1,0-0.2c0-0.6-0.2-1.1-0.5-1.4c-0.3-0.3-0.8-0.5-1.5-0.5c-0.5,0-1,0.1-1.3,0.3s-0.6,0.5-0.8,0.8
		c-0.2-0.1-0.4-0.1-0.5-0.3s-0.2-0.3-0.2-0.5c0-0.4,0.3-0.8,0.8-1.1c0.5-0.3,1.2-0.4,2.1-0.4c1.1,0,1.9,0.3,2.4,0.8
		c0.5,0.5,0.8,1.3,0.8,2.3c0,0.2,0,0.5,0,1c0,0.5,0,0.9,0,1.2c0,0.8,0,1.4,0.1,1.9C33.8,26.2,33.9,26.6,34.1,26.9z M32.2,23
		c-0.3,0-0.5-0.1-0.7-0.1c-0.2,0-0.4,0-0.5,0c-0.9,0-1.6,0.1-2,0.4c-0.5,0.3-0.7,0.7-0.7,1.3c0,0.5,0.2,0.9,0.5,1.1
		c0.3,0.3,0.8,0.4,1.3,0.4c0.4,0,0.8-0.1,1.2-0.2c0.4-0.2,0.7-0.4,1-0.7c0-0.3,0-0.5,0-0.7s0-0.4,0-0.5c0-0.1,0-0.3,0-0.5
		C32.2,23.3,32.2,23.1,32.2,23z"/>
	<path fill="#FFFFFF" stroke="#FFFFFF" stroke-width="0.3" stroke-miterlimit="10" d="M36.9,19.8c0.2-0.4,0.5-0.7,0.7-0.9
		c0.2-0.2,0.4-0.3,0.6-0.3c0.3,0,0.5,0.2,0.7,0.5c0.2,0.4,0.5,1.2,1,2.5c0.1,0.2,0.2,0.5,0.3,0.8c0.7,2.2,1.1,3.2,1.3,3.2
		c0.1,0,0.3-0.2,0.5-0.5s0.5-0.7,0.8-1.2c0.5-0.9,0.8-1.7,1.1-2.4s0.3-1.3,0.3-1.9c0-0.2,0-0.4,0-0.5c0-0.2-0.1-0.3-0.1-0.5
		c0.1,0,0.2-0.1,0.3-0.1c0.1,0,0.2,0,0.4,0c0.4,0,0.7,0.1,0.8,0.2c0.2,0.1,0.3,0.4,0.3,0.7c0,0.6-0.2,1.3-0.6,2.3
		c-0.4,0.9-0.9,2-1.6,3.1c-0.6,1-1.1,1.7-1.5,2c-0.4,0.4-0.7,0.5-1,0.5c-0.5,0-1-0.8-1.6-2.5c-0.2-0.6-0.3-1-0.4-1.4
		c-0.4-1.1-0.7-1.9-1-2.5C37.6,20.5,37.2,20.1,36.9,19.8z"/>
	<path fill="#FFFFFF" stroke="#FFFFFF" stroke-width="0.3" stroke-miterlimit="10" d="M56.2,26.9c-0.2,0.1-0.4,0.3-0.6,0.3
		s-0.3,0.1-0.5,0.1c-0.2,0-0.4-0.1-0.5-0.2c-0.1-0.2-0.2-0.4-0.2-0.7c-0.4,0.4-0.9,0.6-1.3,0.8c-0.4,0.2-0.9,0.3-1.3,0.3
		c-0.9,0-1.6-0.2-2.1-0.7s-0.8-1.1-0.8-1.9c0-0.9,0.4-1.6,1.1-2.2c0.7-0.5,1.7-0.8,3-0.8c0.2,0,0.4,0,0.6,0c0.2,0,0.5,0,0.7,0.1
		c0-0.1,0-0.1,0-0.2s0-0.1,0-0.2c0-0.6-0.2-1.1-0.5-1.4c-0.3-0.3-0.8-0.5-1.5-0.5c-0.5,0-1,0.1-1.3,0.3s-0.6,0.5-0.8,0.8
		c-0.2-0.1-0.4-0.1-0.5-0.3s-0.2-0.3-0.2-0.5c0-0.4,0.3-0.8,0.8-1.1c0.5-0.3,1.2-0.4,2.1-0.4c1.1,0,1.9,0.3,2.4,0.8
		c0.5,0.5,0.8,1.3,0.8,2.3c0,0.2,0,0.5,0,1c0,0.5,0,0.9,0,1.2c0,0.8,0,1.4,0.1,1.9C55.8,26.2,56,26.6,56.2,26.9z M54.3,23
		c-0.3,0-0.5-0.1-0.7-0.1c-0.2,0-0.4,0-0.5,0c-0.9,0-1.6,0.1-2,0.4c-0.5,0.3-0.7,0.7-0.7,1.3c0,0.5,0.2,0.9,0.5,1.1
		c0.3,0.3,0.8,0.4,1.3,0.4c0.4,0,0.8-0.1,1.2-0.2c0.4-0.2,0.7-0.4,1-0.7c0-0.3,0-0.5,0-0.7s0-0.4,0-0.5c0-0.1,0-0.3,0-0.5
		C54.3,23.3,54.3,23.1,54.3,23z"/>
</g>
<g>
	<path fill="#FFFFFF" stroke="#FFFFFF" stroke-width="0.3" stroke-miterlimit="10" d="M89.5,26.9c-0.2,0.1-0.5,0.2-0.7,0.3
		c-0.2,0.1-0.4,0.1-0.6,0.1c-0.3,0-0.5-0.1-0.6-0.2c-0.1-0.2-0.2-0.5-0.2-0.9c0-0.3,0-0.9,0.1-1.8c0.1-0.9,0.1-1.7,0.1-2.4
		c0-0.7,0-1.3-0.1-1.8c-0.1-0.5-0.2-0.8-0.3-1.2c0.2-0.1,0.4-0.2,0.7-0.3c0.2-0.1,0.5-0.1,0.7-0.1c0.3,0,0.5,0.1,0.5,0.2
		c0.1,0.1,0.1,0.4,0.1,0.7c0,0.1,0,0.6-0.1,1.5S89,22.9,89,23.7c0,0.8,0,1.4,0.1,1.9C89.2,26.2,89.3,26.6,89.5,26.9z M89.4,16
		c0,0.3-0.1,0.6-0.3,0.8c-0.2,0.2-0.5,0.3-0.9,0.3c-0.3,0-0.6-0.1-0.7-0.3s-0.3-0.4-0.3-0.7c0-0.3,0.1-0.6,0.3-0.8
		c0.2-0.2,0.5-0.3,0.8-0.3c0.3,0,0.5,0.1,0.7,0.3S89.4,15.7,89.4,16z"/>
	<path fill="#FFFFFF" stroke="#FFFFFF" stroke-width="0.3" stroke-miterlimit="10" d="M93.6,25.9c0.2,0.1,0.4,0.2,0.6,0.2
		c0.2,0.1,0.4,0.1,0.6,0.1c0.4,0,0.8-0.1,1-0.3c0.3-0.2,0.4-0.5,0.4-0.8c0-0.3-0.1-0.5-0.2-0.7c-0.1-0.2-0.4-0.5-0.8-0.8
		c-0.1,0-0.2-0.1-0.3-0.2c-1-0.8-1.5-1.5-1.5-2.2c0-0.3,0-0.5,0.1-0.8c0.1-0.3,0.2-0.5,0.4-0.7c0.4-0.4,0.8-0.8,1.3-1
		c0.5-0.2,1-0.3,1.6-0.3c0.3,0,0.5,0.1,0.6,0.2c0.1,0.1,0.2,0.3,0.2,0.5c0,0.1,0,0.2-0.1,0.4c-0.1,0.1-0.1,0.3-0.3,0.5
		c-0.2-0.1-0.3-0.1-0.4-0.1c-0.1,0-0.3,0-0.4,0c-0.5,0-0.9,0.1-1.2,0.4s-0.4,0.5-0.4,0.9c0,0.4,0.4,1,1.2,1.6
		c0.2,0.2,0.4,0.3,0.5,0.4c0.3,0.3,0.6,0.6,0.8,0.9c0.2,0.3,0.2,0.6,0.2,0.9c0,0.7-0.3,1.4-1,1.9c-0.6,0.5-1.4,0.8-2.3,0.8
		c-0.3,0-0.6-0.1-0.7-0.2s-0.3-0.3-0.3-0.5c0-0.1,0-0.2,0.1-0.4C93.4,26.3,93.5,26.1,93.6,25.9z"/>
	<path fill="#FFFFFF" stroke="#FFFFFF" stroke-width="0.3" stroke-miterlimit="10" d="M107.1,26.1c-0.4,0.5-0.8,0.8-1.3,1.1
		c-0.5,0.2-1,0.3-1.5,0.3c-1,0-1.7-0.3-2.2-0.9c-0.5-0.6-0.8-1.4-0.8-2.5c0-0.2,0-0.7,0-1.3c0-0.6,0-1.1,0-1.5c0-0.5,0-1-0.1-1.3
		c-0.1-0.4-0.2-0.7-0.3-0.9c0.3-0.1,0.5-0.2,0.7-0.3s0.4-0.1,0.5-0.1c0.3,0,0.5,0.1,0.6,0.2c0.1,0.1,0.2,0.4,0.2,0.8
		c0,0.3,0,0.8-0.1,1.7c0,0.8-0.1,1.5-0.1,2c0,1.1,0.1,1.9,0.4,2.3s0.7,0.6,1.4,0.6c0.5,0,0.9-0.1,1.3-0.3c0.4-0.2,0.8-0.6,1.2-1.1
		c0-0.4,0-0.8,0.1-1.2s0-0.9,0-1.3c0-0.8,0-1.5-0.1-2s-0.2-1-0.4-1.3c0.3-0.1,0.5-0.2,0.7-0.3s0.4-0.1,0.6-0.1
		c0.3,0,0.4,0.1,0.5,0.2s0.1,0.5,0.1,1.1c0,0.3,0,0.8,0,1.7c0,0.9,0,1.6,0,2.2c0,0.9,0,1.5,0.1,2c0.1,0.5,0.2,0.8,0.4,1.1
		c-0.3,0.1-0.5,0.2-0.7,0.3c-0.2,0.1-0.4,0.1-0.5,0.1c-0.3,0-0.4-0.1-0.5-0.3C107.2,26.9,107.1,26.6,107.1,26.1z"/>
	<path fill="#FFFFFF" stroke="#FFFFFF" stroke-width="0.3" stroke-miterlimit="10" d="M119.8,26.9c-0.2,0.1-0.4,0.3-0.6,0.3
		s-0.3,0.1-0.5,0.1c-0.2,0-0.4-0.1-0.5-0.2c-0.1-0.2-0.2-0.4-0.2-0.7c-0.4,0.4-0.9,0.6-1.3,0.8c-0.4,0.2-0.9,0.3-1.3,0.3
		c-0.9,0-1.6-0.2-2.1-0.7c-0.5-0.5-0.8-1.1-0.8-1.9c0-0.9,0.4-1.6,1.1-2.2c0.7-0.5,1.7-0.8,3-0.8c0.2,0,0.4,0,0.6,0
		c0.2,0,0.5,0,0.7,0.1c0-0.1,0-0.1,0-0.2s0-0.1,0-0.2c0-0.6-0.2-1.1-0.5-1.4c-0.3-0.3-0.8-0.5-1.5-0.5c-0.5,0-1,0.1-1.3,0.3
		c-0.3,0.2-0.6,0.5-0.8,0.8c-0.2-0.1-0.4-0.1-0.5-0.3s-0.2-0.3-0.2-0.5c0-0.4,0.3-0.8,0.8-1.1c0.5-0.3,1.2-0.4,2.1-0.4
		c1.1,0,1.9,0.3,2.4,0.8c0.5,0.5,0.8,1.3,0.8,2.3c0,0.2,0,0.5,0,1c0,0.5,0,0.9,0,1.2c0,0.8,0,1.4,0.1,1.9S119.6,26.6,119.8,26.9z
		 M117.9,23c-0.3,0-0.5-0.1-0.7-0.1s-0.4,0-0.5,0c-0.9,0-1.6,0.1-2,0.4c-0.5,0.3-0.7,0.7-0.7,1.3c0,0.5,0.2,0.9,0.5,1.1
		c0.3,0.3,0.8,0.4,1.3,0.4c0.4,0,0.8-0.1,1.2-0.2c0.4-0.2,0.7-0.4,1-0.7c0-0.3,0-0.5,0-0.7s0-0.4,0-0.5c0-0.1,0-0.3,0-0.5
		C117.9,23.3,117.9,23.1,117.9,23z"/>
	<path fill="#FFFFFF" stroke="#FFFFFF" stroke-width="0.3" stroke-miterlimit="10" d="M125.8,26.9c-0.2,0.1-0.5,0.2-0.7,0.3
		c-0.2,0.1-0.4,0.1-0.6,0.1c-0.3,0-0.5-0.1-0.6-0.2c-0.1-0.2-0.2-0.5-0.2-0.9c0-0.6,0-1.6,0.1-3.2c0.1-1.5,0.1-2.8,0.1-3.8
		c0-1.2,0-2.2-0.1-2.8c-0.1-0.6-0.2-1.1-0.4-1.5c0.2-0.1,0.5-0.2,0.7-0.3s0.4-0.1,0.6-0.1c0.3,0,0.5,0.1,0.6,0.2
		c0.1,0.1,0.2,0.4,0.2,0.9c0,0.4,0,1.3-0.1,2.9c-0.1,1.6-0.1,3-0.1,4.2c0,1.3,0,2.2,0.1,2.8S125.6,26.6,125.8,26.9z"/>
	<path fill="#FFFFFF" stroke="#FFFFFF" stroke-width="0.3" stroke-miterlimit="10" d="M130,25.9c0.2,0.1,0.4,0.2,0.6,0.2
		c0.2,0.1,0.4,0.1,0.6,0.1c0.4,0,0.8-0.1,1-0.3c0.3-0.2,0.4-0.5,0.4-0.8c0-0.3-0.1-0.5-0.2-0.7c-0.1-0.2-0.4-0.5-0.8-0.8
		c-0.1,0-0.2-0.1-0.3-0.2c-1-0.8-1.5-1.5-1.5-2.2c0-0.3,0-0.5,0.1-0.8c0.1-0.3,0.2-0.5,0.4-0.7c0.4-0.4,0.8-0.8,1.3-1
		c0.5-0.2,1-0.3,1.6-0.3c0.3,0,0.5,0.1,0.6,0.2c0.1,0.1,0.2,0.3,0.2,0.5c0,0.1,0,0.2-0.1,0.4c-0.1,0.1-0.1,0.3-0.3,0.5
		c-0.2-0.1-0.3-0.1-0.4-0.1c-0.1,0-0.3,0-0.4,0c-0.5,0-0.9,0.1-1.2,0.4s-0.4,0.5-0.4,0.9c0,0.4,0.4,1,1.2,1.6
		c0.2,0.2,0.4,0.3,0.5,0.4c0.3,0.3,0.6,0.6,0.8,0.9c0.2,0.3,0.2,0.6,0.2,0.9c0,0.7-0.3,1.4-1,1.9c-0.6,0.5-1.4,0.8-2.3,0.8
		c-0.3,0-0.6-0.1-0.7-0.2s-0.3-0.3-0.3-0.5c0-0.1,0-0.2,0.1-0.4C129.8,26.3,129.9,26.1,130,25.9z"/>
</g>
<g>
	<path fill="#FFFFFF" stroke="#FFFFFF" stroke-width="0.25" stroke-miterlimit="10" d="M2.1,49.6V38.1h3.6c1.1,0,2,0.3,2.6,0.9
		c0.6,0.6,1,1.4,1,2.4c0,0.7-0.2,1.3-0.5,1.8C8.5,43.7,8,44,7.5,44.3c-0.6,0.2-1.4,0.3-2.5,0.3H3.8v5H2.1z M5.5,39.6H3.8v3.6h1.8
		c0.7,0,1.2-0.2,1.5-0.5s0.5-0.8,0.5-1.3C7.6,40.2,6.9,39.6,5.5,39.6z"/>
	<path fill="#FFFFFF" stroke="#FFFFFF" stroke-width="0.25" stroke-miterlimit="10" d="M20.1,38.1h1.6v11.5h-1.6v-5h-6.4v5H12V38.1
		h1.6v5h6.4V38.1z"/>
	<path fill="#FFFFFF" stroke="#FFFFFF" stroke-width="0.25" stroke-miterlimit="10" d="M31.1,38c1.8,0,3.2,0.6,4.4,1.7
		c1.2,1.1,1.8,2.5,1.8,4.2c0,1.7-0.6,3.1-1.8,4.2c-1.2,1.1-2.7,1.7-4.5,1.7c-1.7,0-3.2-0.6-4.3-1.7c-1.1-1.1-1.7-2.5-1.7-4.2
		c0-1.7,0.6-3.1,1.7-4.2C27.8,38.5,29.3,38,31.1,38z M31.1,39.5c-1.3,0-2.4,0.4-3.2,1.2s-1.3,1.9-1.3,3.1c0,1.2,0.4,2.3,1.3,3.1
		c0.8,0.8,1.9,1.2,3.2,1.2c1.3,0,2.3-0.4,3.2-1.3c0.9-0.8,1.3-1.9,1.3-3.1c0-1.2-0.4-2.2-1.3-3.1C33.4,39.9,32.4,39.5,31.1,39.5z"/>
	<path fill="#FFFFFF" stroke="#FFFFFF" stroke-width="0.25" stroke-miterlimit="10" d="M38.4,38.1H48v1.5h-4v10h-1.6v-10h-3.9V38.1z
		"/>
	<path fill="#FFFFFF" stroke="#FFFFFF" stroke-width="0.25" stroke-miterlimit="10" d="M55.3,38c1.8,0,3.2,0.6,4.4,1.7
		c1.2,1.1,1.8,2.5,1.8,4.2c0,1.7-0.6,3.1-1.8,4.2c-1.2,1.1-2.7,1.7-4.5,1.7c-1.7,0-3.2-0.6-4.3-1.7c-1.1-1.1-1.7-2.5-1.7-4.2
		c0-1.7,0.6-3.1,1.7-4.2C52,38.5,53.5,38,55.3,38z M55.3,39.5c-1.3,0-2.4,0.4-3.2,1.2s-1.3,1.9-1.3,3.1c0,1.2,0.4,2.3,1.3,3.1
		c0.8,0.8,1.9,1.2,3.2,1.2c1.3,0,2.3-0.4,3.2-1.3c0.9-0.8,1.3-1.9,1.3-3.1c0-1.2-0.4-2.2-1.3-3.1C57.6,39.9,56.6,39.5,55.3,39.5z"/>
	<path fill="#FFFFFF" stroke="#FFFFFF" stroke-width="0.25" stroke-miterlimit="10" d="M70.9,43.9h3.8v4.9c-1.4,0.6-2.8,0.9-4.2,0.9
		c-1.9,0-3.4-0.6-4.5-1.7c-1.1-1.1-1.7-2.5-1.7-4.1c0-1.7,0.6-3.1,1.8-4.3s2.6-1.7,4.4-1.7c0.6,0,1.3,0.1,1.8,0.2
		c0.6,0.1,1.3,0.4,2.2,0.8v1.7c-1.4-0.8-2.7-1.2-4.1-1.2c-1.2,0-2.3,0.4-3.2,1.3c-0.9,0.9-1.3,1.9-1.3,3.1c0,1.3,0.4,2.4,1.3,3.2
		c0.9,0.8,2,1.2,3.3,1.2c0.7,0,1.4-0.2,2.3-0.5l0.2,0v-2.4h-2.2V43.9z"/>
	<path fill="#FFFFFF" stroke="#FFFFFF" stroke-width="0.25" stroke-miterlimit="10" d="M78.4,49.6V38.1h2.9c1.2,0,2.1,0.3,2.8,0.9
		c0.7,0.6,1,1.3,1,2.3c0,0.7-0.2,1.2-0.5,1.7c-0.3,0.5-0.8,0.8-1.4,1.1c0.4,0.2,0.7,0.6,1.1,1c0.3,0.4,0.8,1.1,1.5,2.2
		c0.4,0.7,0.7,1.1,1,1.5l0.6,0.8h-1.9l-0.5-0.8c0,0,0-0.1-0.1-0.1l-0.3-0.5l-0.5-0.8l-0.5-0.9c-0.3-0.5-0.6-0.8-0.9-1.1
		s-0.5-0.5-0.8-0.6s-0.6-0.2-1.1-0.2H80v5H78.4z M80.5,39.5H80v3.6h0.6c0.8,0,1.4-0.1,1.7-0.2c0.3-0.1,0.5-0.4,0.7-0.6
		c0.2-0.3,0.3-0.6,0.3-1c0-0.4-0.1-0.7-0.3-1c-0.2-0.3-0.5-0.5-0.8-0.6C81.9,39.6,81.3,39.5,80.5,39.5z"/>
	<path fill="#FFFFFF" stroke="#FFFFFF" stroke-width="0.25" stroke-miterlimit="10" d="M93.4,38.1h1.1l5.1,11.5H98l-1.5-3.4h-4.9
		l-1.4,3.4h-1.7L93.4,38.1z M95.8,44.7l-1.8-4.1l-1.7,4.1H95.8z"/>
	<path fill="#FFFFFF" stroke="#FFFFFF" stroke-width="0.25" stroke-miterlimit="10" d="M102,49.6V38.1h3.6c1.1,0,2,0.3,2.6,0.9
		c0.6,0.6,1,1.4,1,2.4c0,0.7-0.2,1.3-0.5,1.8c-0.3,0.5-0.8,0.9-1.4,1.1c-0.6,0.2-1.4,0.3-2.5,0.3h-1.2v5H102z M105.4,39.6h-1.7v3.6
		h1.8c0.7,0,1.2-0.2,1.5-0.5c0.4-0.3,0.5-0.8,0.5-1.3C107.5,40.2,106.8,39.6,105.4,39.6z"/>
	<path fill="#FFFFFF" stroke="#FFFFFF" stroke-width="0.25" stroke-miterlimit="10" d="M120,38.1h1.6v11.5H120v-5h-6.4v5h-1.6V38.1
		h1.6v5h6.4V38.1z"/>
	<path fill="#FFFFFF" stroke="#FFFFFF" stroke-width="0.25" stroke-miterlimit="10" d="M132.2,38.1h2l-4.2,5.4v6.1h-1.7v-6.1
		l-4.2-5.4h2l3.1,3.9L132.2,38.1z"/>
</g>
<g>
	<path fill="#FFFFFF" stroke="#FFFFFF" stroke-miterlimit="10" d="M15.8,1v7.6c-0.6-0.2-1-0.3-1.3-0.3c-0.6,0-1.1,0.2-1.5,0.7
		c-0.4,0.4-0.6,1-0.6,1.6c0,0.5,0.2,1.2,0.7,2l0.6,1c1.1,1.9,1.6,3.7,1.6,5.5c0,2.6-0.9,4.8-2.7,6.5s-4.1,2.7-6.7,2.7
		c-1.3,0-2.5-0.3-3.8-0.9v-7.7c0.7,0.5,1.4,0.7,2,0.7c0.7,0,1.3-0.2,1.7-0.6c0.5-0.4,0.7-0.9,0.7-1.5c0-0.4-0.4-1.2-1.1-2.5
		c-1.2-2.1-1.8-4.1-1.8-6.2c0-2.5,0.9-4.7,2.7-6.5c1.8-1.8,3.9-2.7,6.4-2.7C13.6,0.5,14.7,0.7,15.8,1z"/>
</g>
<g>
	<path fill="#FFFFFF" stroke="#FFFFFF" stroke-miterlimit="10" d="M86.8,0.8l-11.5,28l-11.5-28h9.1l2.4,8.3L78,0.8H86.8z"/>
</g>
<g>
</g>
<g>
</g>
<g>
</g>
<g>
</g>
<g>
</g>
<g>
</g>
<g>
</g>
<g>
</g>
<g>
</g>
<g>
</g>
<g>
</g>
<g>
</g>
<g>
</g>
<g>
</g>
<g>
</g>
</svg>
